<svg width="16" height="16" viewBox="0 0 16 16" fill="none" xmlns="http://www.w3.org/2000/svg">
<path d="M8.54167 15.999V9.80111H6.45833V7.38444H8.54167V5.60319C8.54167 3.54069 9.8125 2.41569 11.6562 2.41569C12.5312 2.41569 13.2917 2.47819 13.5104 2.50944V4.66569L12.2396 4.67611C11.2292 4.67611 11.0417 5.14486 11.0417 5.84277V7.38444H13.4271L13.1146 9.80111H11.0417V15.999H13C14.6562 15.999 16 14.6553 16 12.999V2.99902C16 1.34277 14.6562 -0.000976562 13 -0.000976562H3C1.34375 -0.000976562 0 1.34277 0 2.99902V12.999C0 14.6553 1.34375 15.999 3 15.999H8.54167Z" fill="#141414"/>
<path d="M8.54167 15.999V9.80111H6.45833V7.38444H8.54167V5.60319C8.54167 3.54069 9.8125 2.41569 11.6562 2.41569C12.5312 2.41569 13.2917 2.47819 13.5104 2.50944V4.66569L12.2396 4.67611C11.2292 4.67611 11.0417 5.14486 11.0417 5.84277V7.38444H13.4271L13.1146 9.80111H11.0417V15.999H13C14.6562 15.999 16 14.6553 16 12.999V2.99902C16 1.34277 14.6562 -0.000976562 13 -0.000976562H3C1.34375 -0.000976562 0 1.34277 0 2.99902V12.999C0 14.6553 1.34375 15.999 3 15.999H8.54167Z" fill="black" fill-opacity="0.2"/>
</svg>
