<svg width="196" height="40" viewBox="0 0 196 40" fill="none" xmlns="http://www.w3.org/2000/svg">
<mask id="mask0_1_97" style="mask-type:luminance" maskUnits="userSpaceOnUse" x="0" y="0" width="196" height="40">
<rect width="195.935" height="40" fill="white"/>
</mask>
<g mask="url(#mask0_1_97)">
<path fill-rule="evenodd" clip-rule="evenodd" d="M169.439 5.30807C170.419 5.30807 171.258 4.99378 171.958 4.36521C172.658 3.73664 173.008 2.99021 173.008 2.12593C173.008 1.45807 172.778 0.912981 172.318 0.49066C171.858 0.0683383 171.228 -0.142822 170.429 -0.142822C169.429 -0.142822 168.579 0.171463 167.88 0.800034C167.18 1.42861 166.83 2.18485 166.83 3.06878C166.83 3.717 167.065 4.25226 167.535 4.67459C168.005 5.09691 168.639 5.30807 169.439 5.30807ZM85.1519 2.77414L81.4331 23.4581H76.3048L80.0236 2.77414H85.1519ZM90.9625 14.3831L89.343 23.4581H84.2147L87.1537 7.01699H92.282L91.8922 9.22682C92.5519 8.50003 93.3567 7.92057 94.3064 7.48842C95.2561 7.05628 96.2807 6.84021 97.3804 6.84021C99.0598 6.84021 100.379 7.30182 101.339 8.22503C102.299 9.14824 102.779 10.4349 102.779 12.0848C102.779 12.6348 102.719 13.2241 102.599 13.8527L100.859 23.4581H95.7609L97.3804 14.5304C97.4403 14.1965 97.4703 13.9018 97.4703 13.6465C97.4703 12.8215 97.2354 12.1831 96.7656 11.7313C96.2957 11.2795 95.6409 11.0536 94.8012 11.0536C93.8015 11.0536 92.9618 11.3581 92.282 11.967C91.6023 12.5759 91.1624 13.4304 90.9625 14.5304V14.3831ZM112.818 23.4581L113.597 19.1857H111.768C111.288 19.1857 110.943 19.1072 110.733 18.95C110.524 18.7929 110.419 18.5375 110.419 18.184C110.419 18.0268 110.429 17.8991 110.449 17.8009L111.648 11.2009H115.007L115.757 7.017H112.398L113.118 3.00985H107.989L107.27 7.017H105.23L104.481 11.2009H106.52L105.32 17.742C105.22 18.3706 105.17 18.8911 105.17 19.3036C105.17 22.0732 106.85 23.4581 110.209 23.4581H112.818ZM127.595 22.1027C125.976 23.1634 124.157 23.6938 122.137 23.6938C119.978 23.6938 118.253 23.1045 116.964 21.9259C115.674 20.7473 115.03 19.1465 115.03 17.1232C115.03 16.5143 115.09 15.8857 115.209 15.2375C115.509 13.5286 116.129 12.0357 117.069 10.759C118.009 9.48217 119.178 8.50003 120.578 7.81253C121.977 7.12503 123.507 6.78128 125.166 6.78128C127.325 6.78128 129.04 7.35583 130.309 8.50494C131.579 9.65405 132.214 11.2206 132.214 13.2045C132.214 13.8527 132.164 14.4322 132.064 14.9429C131.984 15.3947 131.864 15.8759 131.704 16.3866H120.098C120.078 16.5045 120.068 16.6911 120.068 16.9465C120.068 17.8107 120.308 18.4688 120.788 18.9206C121.267 19.3723 121.907 19.5982 122.707 19.5982C123.987 19.5982 124.966 19.0679 125.646 18.0072H131.104C130.384 19.6768 129.215 21.042 127.595 22.1027ZM127.026 13.8232H120.578C120.878 12.8607 121.362 12.1192 122.032 11.5987C122.702 11.0782 123.477 10.8179 124.356 10.8179C125.176 10.8179 125.836 11.029 126.336 11.4514C126.836 11.8737 127.086 12.4777 127.086 13.2634C127.086 13.3616 127.066 13.5482 127.026 13.8232ZM143.947 30.4706C142.558 31.1973 140.943 31.5607 139.104 31.5607C136.625 31.5607 134.716 30.9862 133.376 29.8371C132.036 28.688 131.437 27.1313 131.577 25.167H136.645C136.705 25.7956 137 26.2915 137.53 26.6549C138.059 27.0183 138.764 27.2 139.644 27.2C140.704 27.2 141.603 26.9005 142.343 26.3014C143.083 25.7023 143.573 24.7447 143.813 23.4286L144.232 21.1009C143.593 21.867 142.788 22.4906 141.818 22.9719C140.848 23.4531 139.774 23.6938 138.594 23.6938C137.415 23.6938 136.37 23.4286 135.46 22.8982C134.551 22.3679 133.841 21.6116 133.331 20.6295C132.821 19.6473 132.566 18.4982 132.566 17.1822C132.566 16.5732 132.626 15.9152 132.746 15.2081C133.046 13.5188 133.636 12.0357 134.516 10.759C135.395 9.48217 136.455 8.50003 137.695 7.81253C138.934 7.12503 140.244 6.78128 141.623 6.78128C142.803 6.78128 143.803 7.01699 144.622 7.48842C145.442 7.95985 146.012 8.5786 146.332 9.34467L146.752 7.01699H151.88L148.941 23.4286C148.661 24.9411 148.106 26.3112 147.276 27.5389C146.447 28.7665 145.337 29.7438 143.947 30.4706ZM140.873 19.3036C140.014 19.3036 139.299 19.0237 138.729 18.4639C138.159 17.904 137.874 17.1429 137.874 16.1804C137.874 15.8857 137.904 15.5616 137.964 15.2081C138.184 13.9509 138.714 12.9639 139.554 12.2469C140.394 11.5299 141.323 11.1715 142.343 11.1715C143.223 11.1715 143.947 11.4465 144.517 11.9965C145.087 12.5465 145.372 13.3027 145.372 14.2652C145.372 14.5598 145.342 14.884 145.282 15.2375C145.042 16.4947 144.502 17.4866 143.663 18.2134C142.823 18.9402 141.893 19.3036 140.873 19.3036ZM157.201 15.8268L155.821 23.4581H150.693L153.632 7.01699H158.76L158.22 9.99289C159 9.01074 159.895 8.23976 160.904 7.67994C161.914 7.12012 162.969 6.84021 164.068 6.84021L163.109 12.1732H161.699C160.42 12.1732 159.41 12.4433 158.67 12.9835C157.93 13.5237 157.441 14.4715 157.201 15.8268ZM165.53 7.01699H170.659L167.72 23.4581H162.591L165.53 7.01699ZM178.149 23.6938C180.088 23.6938 181.852 23.2616 183.442 22.3973C185.031 21.5331 186.281 20.3398 187.191 18.8174C188.1 17.2951 188.555 15.5911 188.555 13.7054C188.555 12.3304 188.245 11.1223 187.626 10.0813C187.006 9.04021 186.131 8.22994 185.001 7.65048C183.872 7.07101 182.587 6.78128 181.148 6.78128C179.208 6.78128 177.449 7.21833 175.869 8.09244C174.29 8.96655 173.05 10.1697 172.151 11.7018C171.251 13.234 170.801 14.9331 170.801 16.7991C170.801 18.1741 171.106 19.3822 171.716 20.4232C172.326 21.4643 173.19 22.2697 174.31 22.8393C175.43 23.409 176.709 23.6938 178.149 23.6938ZM176.859 18.5817C177.379 19.1023 178.049 19.3625 178.868 19.3625C179.708 19.3625 180.463 19.1121 181.133 18.6112C181.802 18.1103 182.322 17.4621 182.692 16.6665C183.062 15.871 183.247 15.0411 183.247 14.1768C183.247 13.1947 182.977 12.4384 182.437 11.9081C181.897 11.3777 181.218 11.1125 180.398 11.1125C179.538 11.1125 178.783 11.363 178.134 11.8639C177.484 12.3648 176.979 13.0179 176.619 13.8232C176.259 14.6286 176.079 15.4732 176.079 16.3572C176.079 17.3197 176.339 18.0612 176.859 18.5817Z" fill="black"/>
<path fill-rule="evenodd" clip-rule="evenodd" d="M78.3581 39.6021C78.742 39.6021 79.0752 39.5288 79.3578 39.3821C79.6404 39.2355 79.8536 39.0443 79.9976 38.8086C80.1415 38.5729 80.2135 38.3214 80.2135 38.0543C80.2135 37.7086 80.1335 37.4349 79.9736 37.2332C79.8136 37.0315 79.6217 36.8823 79.3978 36.7854C79.1738 36.6885 78.8779 36.5902 78.5101 36.4907C78.2062 36.4069 77.9702 36.3323 77.8023 36.2668C77.6344 36.2013 77.4931 36.1057 77.3784 35.98C77.2638 35.8543 77.2065 35.6919 77.2065 35.4929C77.2065 35.2152 77.3025 34.9992 77.4944 34.8446C77.6863 34.6901 77.9343 34.6129 78.2382 34.6129C78.5634 34.6129 78.8246 34.6927 79.0219 34.8525C79.2192 35.0123 79.3311 35.1969 79.3578 35.4064H80.1575C80.1149 34.9821 79.9269 34.6417 79.5937 34.385C79.2605 34.1283 78.8326 34 78.3101 34C77.9476 34 77.6264 34.0629 77.3465 34.1886C77.0665 34.3143 76.8493 34.4924 76.6947 34.7229C76.5401 34.9533 76.4627 35.2179 76.4627 35.5164C76.4627 35.8569 76.5414 36.128 76.6987 36.3296C76.8559 36.5313 77.0452 36.6793 77.2665 36.7736C77.4877 36.8679 77.7823 36.9621 78.1502 37.0564C78.4488 37.135 78.686 37.2083 78.862 37.2764C79.0379 37.3445 79.1845 37.444 79.3018 37.575C79.4191 37.706 79.4777 37.8762 79.4777 38.0857C79.4777 38.3529 79.3778 38.5715 79.1778 38.7418C78.9779 38.912 78.7047 38.9971 78.3581 38.9971C77.9956 38.9971 77.7197 38.9094 77.5304 38.7339C77.3411 38.5584 77.2332 38.3424 77.2065 38.0857H76.4308C76.4361 38.3843 76.5214 38.6475 76.6867 38.8754C76.8519 39.1032 77.0799 39.2813 77.3704 39.4096C77.661 39.538 77.9902 39.6021 78.3581 39.6021ZM95.7684 39.5471V37.4807L97.5838 34.0707H96.776L95.4005 36.8443L94.0249 34.0707H93.2172L95.0406 37.4807V39.5471H95.7684ZM113.515 39.3821C113.232 39.5288 112.899 39.6021 112.515 39.6021C112.147 39.6021 111.818 39.538 111.527 39.4096C111.237 39.2813 111.009 39.1032 110.843 38.8754C110.678 38.6475 110.593 38.3843 110.587 38.0857H111.363C111.39 38.3424 111.498 38.5584 111.687 38.7339C111.876 38.9094 112.152 38.9971 112.515 38.9971C112.861 38.9971 113.135 38.912 113.335 38.7418C113.535 38.5715 113.634 38.3529 113.634 38.0857C113.634 37.8762 113.576 37.706 113.459 37.575C113.341 37.444 113.195 37.3445 113.019 37.2764C112.843 37.2083 112.605 37.135 112.307 37.0564C111.939 36.9621 111.644 36.8679 111.423 36.7736C111.202 36.6793 111.013 36.5313 110.855 36.3296C110.698 36.128 110.619 35.8569 110.619 35.5164C110.619 35.2179 110.697 34.9533 110.851 34.7229C111.006 34.4924 111.223 34.3143 111.503 34.1886C111.783 34.0629 112.104 34 112.467 34C112.989 34 113.417 34.1283 113.75 34.385C114.084 34.6417 114.272 34.9821 114.314 35.4064H113.515C113.488 35.1969 113.376 35.0123 113.179 34.8525C112.981 34.6927 112.72 34.6129 112.395 34.6129C112.091 34.6129 111.843 34.6901 111.651 34.8446C111.459 34.9992 111.363 35.2152 111.363 35.4929C111.363 35.6919 111.421 35.8543 111.535 35.98C111.65 36.1057 111.791 36.2013 111.959 36.2668C112.127 36.3323 112.363 36.4069 112.667 36.4907C113.035 36.5902 113.331 36.6885 113.554 36.7854C113.778 36.8823 113.97 37.0315 114.13 37.2332C114.29 37.4349 114.37 37.7086 114.37 38.0543C114.37 38.3214 114.298 38.5729 114.154 38.8086C114.01 39.0443 113.797 39.2355 113.515 39.3821ZM129.749 39.5471V34.6521H131.269V34.0707H127.494V34.6521H129.021V39.5471H129.749ZM147.559 38.9579V39.5471H144.56V34.0629H147.559V34.6521H145.288V36.4829H147.319V37.0721H145.288V38.9579H147.559ZM161.787 39.5471V35.485L163.634 39.5471H164.146L165.985 35.4929V39.5471H166.713V34.11H165.937L163.89 38.6043L161.843 34.11H161.059V39.5471H161.787ZM183.108 39.3821C182.825 39.5288 182.492 39.6021 182.108 39.6021C181.74 39.6021 181.411 39.538 181.12 39.4096C180.83 39.2813 180.602 39.1032 180.436 38.8754C180.271 38.6475 180.186 38.3843 180.18 38.0857H180.956C180.983 38.3424 181.091 38.5584 181.28 38.7339C181.469 38.9094 181.745 38.9971 182.108 38.9971C182.454 38.9971 182.728 38.912 182.928 38.7418C183.128 38.5715 183.227 38.3529 183.227 38.0857C183.227 37.8762 183.169 37.706 183.052 37.575C182.934 37.444 182.788 37.3445 182.612 37.2764C182.436 37.2083 182.198 37.135 181.9 37.0564C181.532 36.9621 181.237 36.8679 181.016 36.7736C180.795 36.6793 180.606 36.5313 180.448 36.3296C180.291 36.128 180.212 35.8569 180.212 35.5164C180.212 35.2179 180.29 34.9533 180.444 34.7229C180.599 34.4924 180.816 34.3143 181.096 34.1886C181.376 34.0629 181.697 34 182.06 34C182.582 34 183.01 34.1283 183.343 34.385C183.677 34.6417 183.865 34.9821 183.907 35.4064H183.108C183.081 35.1969 182.969 35.0123 182.772 34.8525C182.574 34.6927 182.313 34.6129 181.988 34.6129C181.684 34.6129 181.436 34.6901 181.244 34.8446C181.052 34.9992 180.956 35.2152 180.956 35.4929C180.956 35.6919 181.014 35.8543 181.128 35.98C181.243 36.1057 181.384 36.2013 181.552 36.2668C181.72 36.3323 181.956 36.4069 182.26 36.4907C182.628 36.5902 182.924 36.6885 183.148 36.7854C183.371 36.8823 183.563 37.0315 183.723 37.2332C183.883 37.4349 183.963 37.7086 183.963 38.0543C183.963 38.3214 183.891 38.5729 183.747 38.8086C183.603 39.0443 183.39 39.2355 183.108 39.3821Z" fill="black"/>
<path fill-rule="evenodd" clip-rule="evenodd" d="M37.716 34.5212C55.0947 28.2967 66.6192 16.3189 63.4565 7.76799C60.2938 -0.782881 43.6417 -2.66876 26.2629 3.55577C8.88412 9.78029 -2.6403 21.7581 0.522379 30.309C3.68506 38.8599 20.3372 40.7457 37.716 34.5212Z" fill="#FF5621"/>
<mask id="mask1_1_97" style="mask-type:luminance" maskUnits="userSpaceOnUse" x="0" y="-1" width="64" height="40">
<path fill-rule="evenodd" clip-rule="evenodd" d="M37.716 34.5212C55.0947 28.2967 66.6192 16.3189 63.4565 7.76799C60.2938 -0.782881 43.6417 -2.66876 26.2629 3.55577C8.88412 9.78029 -2.6403 21.7581 0.522379 30.309C3.68506 38.8599 20.3372 40.7457 37.716 34.5212Z" fill="white"/>
</mask>
<g mask="url(#mask1_1_97)">
<path fill-rule="evenodd" clip-rule="evenodd" d="M0.422668 24.9996H15.9947C16.5468 24.9996 16.9944 24.5519 16.9944 23.9997V18.9998C16.9944 18.4476 16.5468 17.9999 15.9947 17.9999H13.9953V21.9997H1.63026C1.10299 23.0085 0.697414 24.0117 0.422668 24.9996ZM63.5561 14C63.2814 14.988 62.8758 15.9911 62.3485 16.9999H20.993V17.9999H49.9835C50.5356 17.9999 50.9831 18.4476 50.9831 18.9998V23.9997C50.9831 24.5519 50.5356 24.9996 49.9835 24.9996H18.9937C18.4416 24.9996 17.994 24.5519 17.994 23.9997V21.9997H47.9841V20.9998H18.9937C18.4416 20.9998 17.994 20.5521 17.994 19.9998V15C17.994 14.4477 18.4416 14 18.9937 14H63.5561ZM16.9944 15.4999C16.9944 14.6715 16.323 14 15.4949 14C14.6667 14 13.9953 14.6715 13.9953 15.4999C13.9953 16.3283 14.6667 16.9999 15.4949 16.9999C16.323 16.9999 16.9944 16.3283 16.9944 15.4999Z" fill="white"/>
</g>
</g>
</svg>
