<svg width="11" height="16" viewBox="0 0 11 16" fill="none" xmlns="http://www.w3.org/2000/svg">
<path fill-rule="evenodd" clip-rule="evenodd" d="M5 4.21053V0C5 0 0 0.421052 0 8C0 15.5789 5 16 5 16V11.7895H3.33333C3.33333 11.7895 2.5 10.5263 2.5 8C2.5 5.47368 3.33333 4.21053 3.33333 4.21053H5ZM9.26351 4C10.3685 5.11587 11 6.61948 11 8.22167C11 9.73664 10.4353 11.1634 9.44007 12.2573L9.24844 12.4585L8.54037 11.7524C9.46939 10.8208 10 9.56386 10 8.22167C10 6.97476 9.54209 5.80135 8.73191 4.89394L8.55294 4.70363L9.26351 4ZM9 8.22167C9 7.16387 8.5869 6.16995 7.86276 5.42799L7.14711 6.12646L7.28951 6.2829C7.74442 6.81916 8 7.49973 8 8.22167C8 9.03393 7.67635 9.7936 7.11048 10.3538L7.814 11.0645L7.97055 10.9005C8.62727 10.173 9 9.22637 9 8.22167ZM7 8.22167C7 7.70386 6.80172 7.21587 6.45291 6.84723L5.72654 7.53454L5.80749 7.63156C5.93149 7.80068 6 8.00535 6 8.22167C6 8.49266 5.89238 8.74533 5.7036 8.93227L6.40724 9.64283L6.52674 9.51368C6.82916 9.15674 7 8.70226 7 8.22167Z" fill="black"/>
</svg>
