<svg width="16" height="16" viewBox="0 0 16 16" fill="none" xmlns="http://www.w3.org/2000/svg">
<path fill-rule="evenodd" clip-rule="evenodd" d="M1.91667 3.56152C3.11458 3.56152 3.86458 2.76986 3.85417 1.78027C3.84375 0.769857 3.11458 -0.000976562 1.9375 -0.000976562C0.770833 -0.000976562 0 0.769857 0 1.78027C0 2.76986 0.739583 3.56152 1.89583 3.56152H1.91667ZM8.95833 15.292V9.53158C8.95833 9.21908 8.98958 8.91699 9.07292 8.68783C9.32292 8.07324 9.88542 7.43783 10.8333 7.43783C12.0729 7.43783 12.5729 8.38574 12.5729 9.77116V15.292H16V9.37533C16 6.20866 14.3125 4.72949 12.0521 4.72949C10.2752 4.72949 9.45493 5.6766 8.99544 6.37895L8.95812 6.43574L8.95833 4.96908H5.53125L5.53183 4.98608L5.53207 4.99431L5.53266 5.01658C5.53595 5.14861 5.54418 5.6028 5.54789 6.93864L5.54857 7.21773L5.54886 7.3664L5.54951 7.85041L5.54964 8.02483L5.5497 8.79124L5.54959 9.00064L5.54891 9.67357C5.54702 11.088 5.54181 12.9205 5.53125 15.292H8.95833ZM3.63672 4.96777V15.2907H0.199219V4.96777H3.63672Z" fill="#141414"/>
<path fill-rule="evenodd" clip-rule="evenodd" d="M1.91667 3.56152C3.11458 3.56152 3.86458 2.76986 3.85417 1.78027C3.84375 0.769857 3.11458 -0.000976562 1.9375 -0.000976562C0.770833 -0.000976562 0 0.769857 0 1.78027C0 2.76986 0.739583 3.56152 1.89583 3.56152H1.91667ZM8.95833 15.292V9.53158C8.95833 9.21908 8.98958 8.91699 9.07292 8.68783C9.32292 8.07324 9.88542 7.43783 10.8333 7.43783C12.0729 7.43783 12.5729 8.38574 12.5729 9.77116V15.292H16V9.37533C16 6.20866 14.3125 4.72949 12.0521 4.72949C10.2752 4.72949 9.45493 5.6766 8.99544 6.37895L8.95812 6.43574L8.95833 4.96908H5.53125L5.53183 4.98608L5.53207 4.99431L5.53266 5.01658C5.53595 5.14861 5.54418 5.6028 5.54789 6.93864L5.54857 7.21773L5.54886 7.3664L5.54951 7.85041L5.54964 8.02483L5.5497 8.79124L5.54959 9.00064L5.54891 9.67357C5.54702 11.088 5.54181 12.9205 5.53125 15.292H8.95833ZM3.63672 4.96777V15.2907H0.199219V4.96777H3.63672Z" fill="black" fill-opacity="0.2"/>
</svg>
