<svg width="16" height="13" viewBox="0 0 16 13" fill="none" xmlns="http://www.w3.org/2000/svg">
<path d="M5.03006 12.9966C6.19984 12.9966 7.2938 12.8125 8.31194 12.4442C9.33008 12.0759 10.2031 11.5799 10.931 10.956C11.6588 10.3321 12.287 9.61939 12.8156 8.81787C13.3442 8.01635 13.7363 7.17584 13.9919 6.29634C14.2475 5.41684 14.3753 4.53517 14.3753 3.65134C14.3753 3.49537 14.371 3.35673 14.3623 3.23542C15.0122 2.7675 15.5581 2.19994 16 1.53274C15.4021 1.80135 14.7739 1.97465 14.1154 2.05264C14.8259 1.62805 15.3068 1.0215 15.5581 0.23298C14.9082 0.622906 14.215 0.891523 13.4785 1.03883C12.8286 0.345625 12.0271 -0.000976562 11.0739 -0.000976562C10.1728 -0.000976562 9.40157 0.31963 8.76036 0.960843C8.11914 1.60206 7.79854 2.37325 7.79854 3.27441C7.79854 3.53436 7.82453 3.78565 7.87652 4.02827C6.53344 3.95895 5.27701 3.62318 4.10723 3.02096C2.93745 2.41874 1.94097 1.61072 1.11779 0.596911C0.823179 1.10815 0.675873 1.65838 0.675873 2.2476C0.675873 2.81083 0.805849 3.3329 1.0658 3.81381C1.32575 4.29472 1.68102 4.68248 2.1316 4.97709C1.60303 4.95976 1.10913 4.82112 0.649878 4.56117V4.61316C0.649878 5.40168 0.898998 6.09705 1.39724 6.69927C1.89548 7.30149 2.52153 7.67625 3.27539 7.82356C2.9981 7.90154 2.71216 7.94053 2.41755 7.94053C2.20959 7.94053 2.00162 7.91887 1.79366 7.87555C2.01029 8.53409 2.39805 9.07565 2.95695 9.50024C3.51584 9.92483 4.15056 10.1458 4.86109 10.1631C3.66531 11.0989 2.3049 11.5669 0.779854 11.5669C0.528568 11.5669 0.268616 11.5539 0 11.5279C1.53371 12.507 3.2104 12.9966 5.03006 12.9966Z" fill="#141414"/>
<path d="M5.03006 12.9966C6.19984 12.9966 7.2938 12.8125 8.31194 12.4442C9.33008 12.0759 10.2031 11.5799 10.931 10.956C11.6588 10.3321 12.287 9.61939 12.8156 8.81787C13.3442 8.01635 13.7363 7.17584 13.9919 6.29634C14.2475 5.41684 14.3753 4.53517 14.3753 3.65134C14.3753 3.49537 14.371 3.35673 14.3623 3.23542C15.0122 2.7675 15.5581 2.19994 16 1.53274C15.4021 1.80135 14.7739 1.97465 14.1154 2.05264C14.8259 1.62805 15.3068 1.0215 15.5581 0.23298C14.9082 0.622906 14.215 0.891523 13.4785 1.03883C12.8286 0.345625 12.0271 -0.000976562 11.0739 -0.000976562C10.1728 -0.000976562 9.40157 0.31963 8.76036 0.960843C8.11914 1.60206 7.79854 2.37325 7.79854 3.27441C7.79854 3.53436 7.82453 3.78565 7.87652 4.02827C6.53344 3.95895 5.27701 3.62318 4.10723 3.02096C2.93745 2.41874 1.94097 1.61072 1.11779 0.596911C0.823179 1.10815 0.675873 1.65838 0.675873 2.2476C0.675873 2.81083 0.805849 3.3329 1.0658 3.81381C1.32575 4.29472 1.68102 4.68248 2.1316 4.97709C1.60303 4.95976 1.10913 4.82112 0.649878 4.56117V4.61316C0.649878 5.40168 0.898998 6.09705 1.39724 6.69927C1.89548 7.30149 2.52153 7.67625 3.27539 7.82356C2.9981 7.90154 2.71216 7.94053 2.41755 7.94053C2.20959 7.94053 2.00162 7.91887 1.79366 7.87555C2.01029 8.53409 2.39805 9.07565 2.95695 9.50024C3.51584 9.92483 4.15056 10.1458 4.86109 10.1631C3.66531 11.0989 2.3049 11.5669 0.779854 11.5669C0.528568 11.5669 0.268616 11.5539 0 11.5279C1.53371 12.507 3.2104 12.9966 5.03006 12.9966Z" fill="black" fill-opacity="0.2"/>
</svg>
