<svg width="179" height="24" viewBox="0 0 179 24" fill="none" xmlns="http://www.w3.org/2000/svg">
<path d="M167.93 17.0553C167.93 16.2894 168.315 16.1362 168.989 16.5447C170.289 17.3106 171.588 18.0766 171.588 18.0766C171.636 17.6681 171.973 17.2596 172.743 17.4638C173.465 17.617 174.283 17.8213 174.283 17.8213C174.283 17.8213 173.85 16.8 173.658 16.3404C173.321 15.5234 173.658 15.1149 173.994 15.0128C173.994 15.0128 173.513 14.6553 173.176 14.4C172.503 13.8894 172.647 13.3787 173.321 13.0723C174.235 12.6638 175.39 12.1021 175.39 12.1021C175.005 11.8979 174.62 11.234 175.101 10.5191C175.583 9.80426 176.256 8.78298 176.256 8.78298C176.256 8.78298 175.005 8.78298 174.187 8.78298C173.417 8.78298 173.273 8.11915 173.273 7.71064C173.273 7.71064 172.069 8.62979 171.155 9.24255C170.433 9.75319 169.759 9.24255 169.856 8.37447C170.048 6.94468 170.192 5.41277 170.192 5.41277C169.759 5.71915 168.941 5.71915 168.604 4.95319C168.075 3.77872 167.497 2.4 167.497 2.4C167.497 2.4 166.92 3.77872 166.39 4.95319C166.054 5.71915 165.283 5.77021 164.802 5.41277C164.802 5.41277 164.947 6.99575 165.139 8.37447C165.235 9.29362 164.562 9.80426 163.84 9.24255C162.973 8.62979 161.722 7.71064 161.722 7.71064C161.722 8.17021 161.53 8.78298 160.808 8.78298C159.99 8.78298 158.738 8.78298 158.738 8.78298C158.738 8.78298 159.46 9.80426 159.893 10.5191C160.375 11.234 159.941 11.8979 159.604 12.1021C159.604 12.1021 160.76 12.6638 161.674 13.0723C162.348 13.3787 162.492 13.8894 161.818 14.4C161.481 14.6553 161 15.0128 161 15.0128C161.337 15.1149 161.674 15.5234 161.337 16.3404C161.145 16.8 160.711 17.8213 160.711 17.8213C160.711 17.8213 161.53 17.617 162.251 17.4638C163.022 17.2596 163.358 17.6681 163.407 18.0766C163.407 18.0766 164.754 17.3106 166.005 16.5447C166.679 16.1362 167.064 16.2894 167.064 17.0553C167.064 17.6681 167.064 18.9447 167.064 18.9447C167.064 20.0681 166.872 21.2426 166.487 21.9064C161.578 21.3447 157.487 17.1574 157.487 11.6426C157.487 5.97447 161.963 1.37872 167.449 1.37872C172.936 1.37872 177.411 5.97447 177.411 11.6426C177.411 16.9532 173.513 21.2936 168.556 21.8553C168.556 22.0596 168.556 22.9787 168.556 23.234C174.428 22.6723 179 17.6681 179 11.6426C179.048 5.20851 173.898 0 167.497 0C161.145 0 155.947 5.20851 155.947 11.6426C155.947 17.3106 159.941 22.0085 165.235 23.0809C166.15 23.2851 166.727 23.3872 167.16 24C167.738 22.8766 167.882 20.5787 167.882 19.2511C167.93 19.3021 167.93 17.6681 167.93 17.0553Z" fill="black"/>
<path fill-rule="evenodd" clip-rule="evenodd" d="M59.5498 17.0206C58.2076 17.5761 56.5175 17.8286 54.5292 17.8286C52.1432 17.8286 50.2543 17.2226 48.9121 16.1117C47.57 14.9502 46.9238 13.3343 46.9238 11.3143C46.9238 9.1934 47.6197 7.62796 48.9618 6.46649C50.304 5.35553 52.2426 4.80005 54.7777 4.80005C56.3684 4.80005 57.9591 4.95154 59.5498 5.30503V7.32497C57.7603 6.76948 56.0702 6.51699 54.8772 6.51699C53.3362 6.51699 52.1432 6.92098 51.2981 7.72895C50.4531 8.53693 50.0554 9.74889 50.0057 11.2638C50.0057 12.7788 50.4531 13.9402 51.3478 14.7987C52.2426 15.6572 53.4853 16.0612 55.1257 16.0612C56.5672 16.0612 58.1579 15.7582 59.5995 15.1522L59.5498 17.0206ZM26.643 17.4246V5.10303H32.5583C35.6899 5.10303 37.1315 6.46648 37.2309 8.18343C37.2806 8.9409 37.0818 9.74887 36.535 10.3549C35.9882 10.9608 35.7396 11.2133 34.7455 11.6678L39.2192 17.4246H35.8888L31.9618 12.3243H29.2775V17.4246H26.643ZM29.2805 10.7084H30.4735C33.7542 10.7084 34.4005 10.1529 34.4005 8.53693C34.4005 6.97149 32.9589 6.71899 30.8214 6.71899H29.2308V10.7084H29.2805ZM5.31882 5.1031L0 17.4247H2.03805L3.4796 14.1423H9.09667L10.4885 17.4247H13.7693L8.54988 5.1031H5.31882ZM4.17638 12.5265H8.40161L6.31385 7.62817L4.17638 12.5265ZM17.5486 5.10303V17.4246H20.382V5.10303H17.5486ZM68.3509 5.10303L63.0321 17.4246H65.0702L66.5117 14.1422H72.1288L73.5206 17.4246H76.8014L71.582 5.10303H68.3509ZM67.2046 12.5265H71.4298L69.3421 7.62817L67.2046 12.5265ZM103.394 5.15356L98.0747 17.4247H100.113L101.554 14.1423H107.171L108.563 17.4247H111.844L106.625 5.15356H103.394ZM102.251 12.5265H106.476L104.389 7.62817L102.251 12.5265ZM136.648 5.10303L131.33 17.4246H133.368L134.809 14.1422H140.426L141.818 17.4246H145.099L139.879 5.10303H136.648ZM135.506 12.5265H139.731L137.643 7.62817L135.506 12.5265ZM80.8266 5.10303V17.4246H83.1132V8.23392L91.0169 17.4246H93.9994V5.10303H91.7128V13.8897L84.1074 5.10303H80.8266ZM115.818 17.4246V5.10303H121.684C123.772 5.10303 125.412 5.60801 126.506 6.66848C127.599 7.67844 128.196 9.14289 128.196 11.0618C128.196 13.0818 127.599 14.6472 126.406 15.8087C125.213 16.9196 123.523 17.4751 121.436 17.4751H115.818V17.4246ZM120.743 15.6573H118.655H118.605V6.82007H120.345C121.439 6.82007 122.284 6.92107 122.831 7.12306C123.377 7.32505 123.874 7.67854 124.272 8.23402C124.869 8.9915 125.167 10.0015 125.167 11.1629C125.167 12.6779 124.819 13.7888 124.073 14.5463C123.328 15.3038 122.234 15.6573 120.743 15.6573Z" fill="black"/>
</svg>
