<svg width="79" height="24" viewBox="0 0 79 24" fill="none" xmlns="http://www.w3.org/2000/svg">
<path fill-rule="evenodd" clip-rule="evenodd" d="M20.4463 0H10.1197C10.0631 0.323332 9.9883 0.64341 9.8956 0.958793C9.53644 2.63325 9.17214 4.30216 8.80708 5.97452L8.80692 5.97527L8.61918 6.83549L8.61808 6.84069C8.58455 6.99958 8.54207 7.20093 8.51261 7.3145C8.48284 7.42931 8.48832 7.4795 8.64504 7.4795H10.1205C10.2459 7.4795 10.2459 7.52207 10.2459 7.63689C10.01 8.73862 9.75926 9.84112 9.50852 10.9436C9.48658 11.0584 9.44897 11.101 9.31655 11.101H2.06547C1.92521 11.101 1.83667 11.1299 1.83667 11.2728C1.28086 13.8595 0.722705 16.4485 0.162197 19.0398C0.130134 19.266 0.0758201 19.4888 0 19.7051V20.4776C0.065022 20.778 0.156243 21.0726 0.272679 21.358C0.628047 22.2257 1.32929 22.9174 2.21748 23.2764C2.49053 23.3867 2.78361 23.4428 3.0794 23.4414H11.6986C12.7491 23.4572 13.767 23.0867 14.5476 22.4043C14.6542 22.3141 14.758 22.2184 14.8623 22.1222L14.8624 22.1221C14.9313 22.0585 15.0006 21.9947 15.071 21.9321C15.0768 21.9265 15.0823 21.9205 15.0875 21.9147L15.0876 21.9146C15.1156 21.8839 15.1375 21.8598 15.1745 21.9321C15.6004 22.6425 16.3205 23.1411 17.1514 23.3007C17.5085 23.3963 17.8779 23.4421 18.2484 23.4368H26.5541C27.3262 23.4327 28.0695 23.1522 28.6415 22.6491C28.6635 22.6134 28.6784 22.6134 28.7301 22.6134C28.6932 22.8209 28.6345 23.1213 28.6047 23.2429C28.5749 23.3646 28.6047 23.4003 28.7371 23.4003H45.0054C45.1308 23.4003 45.1896 23.3555 45.1896 23.2483C45.238 23.0354 45.2891 22.8239 45.3407 22.6103L45.3407 22.61C45.3951 22.385 45.45 22.1577 45.503 21.9237C45.804 22.21 46.1473 22.4512 46.5216 22.6392C47.4247 23.1254 48.4391 23.3837 49.4717 23.3904H67.5289C70.4366 23.3619 73.0399 21.6354 74.1234 19.0169C74.5181 17.9742 74.6421 16.8531 74.4846 15.7528C74.4276 15.2578 74.2906 14.7747 74.0787 14.3211C73.814 13.75 73.3996 13.2563 72.8767 12.8893L72.8101 12.8392H73.7324C73.8577 12.8392 73.9165 12.8034 73.9165 12.6962C74.1929 11.4957 74.4513 10.2572 74.7091 9.02143L74.7094 9.01996L74.7095 9.01964L74.7095 9.01938L74.7096 9.0192L74.7096 9.01902L74.7096 9.01891L74.7097 9.0188L74.7097 9.01868L74.7097 9.01857L74.7097 9.01846L74.7097 9.01835C74.8237 8.47225 74.9375 7.9267 75.0527 7.38521C75.0796 7.25645 75.106 7.12918 75.1322 7.00313C75.2064 6.64541 75.2786 6.29758 75.3551 5.95349C75.3771 5.81054 75.3551 5.81054 75.2368 5.81054H64.6297C63.8141 5.82699 63.0214 6.0758 62.3504 6.52603C61.8607 6.83924 61.4102 7.20667 61.0081 7.62092L60.9345 7.72128C60.8142 7.41982 60.6475 7.13781 60.44 6.88491C59.851 6.18585 58.9658 5.78533 58.0353 5.79686H46.3469C46.2137 5.79686 46.14 5.82575 46.14 5.96185C46.1092 6.17903 46.0646 6.39475 46.0206 6.60754L46.0205 6.60776L46.0205 6.60796C46.0008 6.70345 45.9811 6.79834 45.9629 6.89251C45.8673 6.89251 45.8673 6.84233 45.8673 6.80659C45.6377 6.48552 45.3411 6.21482 44.9968 6.01203C44.754 5.86904 44.4768 5.79039 44.1929 5.78393H32.2005C32.0892 5.78393 32.0304 5.81967 32.0304 5.92003C32.0011 6.07783 31.9647 6.22949 31.9262 6.38984L31.9261 6.38998L31.9261 6.39015L31.926 6.39049L31.9259 6.3911L31.9256 6.39213L31.9256 6.39239L31.9255 6.39282C31.9067 6.47106 31.8874 6.55138 31.8682 6.63551C31.6485 6.23865 31.2599 5.95579 30.8057 5.86225C30.6219 5.82207 30.4339 5.80293 30.2455 5.80522H20.9775C20.3945 5.79251 19.8178 5.92552 19.303 6.19147C19.2898 6.19939 19.2741 6.20622 19.2584 6.21306C19.2182 6.23056 19.1777 6.24817 19.1777 6.28424C19.1275 6.2454 19.1457 6.20303 19.1624 6.16411C19.1702 6.14588 19.1777 6.1284 19.1777 6.1124C19.5416 4.32512 19.9217 2.56159 20.3093 0.764061L20.3093 0.763756L20.4463 0.128498V0ZM57.7924 18.1587H58.9356C58.8728 18.4627 58.8144 18.7636 58.7567 19.0604L58.7566 19.061L58.7564 19.062L58.7561 19.0634L58.756 19.0644L58.7559 19.0646L58.7559 19.0647L58.7558 19.0652L58.7557 19.0659C58.7051 19.3261 58.6552 19.5832 58.6034 19.8367C58.566 20.0196 58.5279 20.2015 58.4899 20.3831L58.4899 20.3833L58.4897 20.3842C58.4146 20.7431 58.3398 21.1009 58.2711 21.4616C58.2563 21.5833 58.2194 21.5833 58.1238 21.5833H49.0283C47.7408 21.5756 46.5667 20.8676 45.9896 19.7508C44.9664 17.9964 45.2674 15.7961 46.7269 14.3615C47.614 13.5152 48.7665 12.9801 50.0022 12.8408C50.3983 12.7908 50.7977 12.7692 51.1972 12.7762H58.641C58.7109 12.7762 58.7476 12.7762 58.7669 12.7945C58.7883 12.8149 58.7883 12.8577 58.7883 12.948C58.4195 14.6471 58.0557 16.3412 57.6968 18.0302C57.6741 18.1587 57.689 18.1587 57.7924 18.1587ZM7.69423 21.6014H11.891C12.9887 21.3982 13.8581 20.5832 14.1053 19.5256C14.5969 17.3257 15.0715 15.1283 15.5291 12.9335C15.5291 12.8263 15.5291 12.7974 15.4186 12.7974H10.9915C10.9029 12.7974 10.859 12.7974 10.8442 12.9122C10.7489 13.3474 10.6493 13.7804 10.5497 14.2135L10.5497 14.2137L10.5496 14.2138L10.5496 14.2139L10.5496 14.2141L10.5496 14.2142L10.5495 14.2143L10.5495 14.2144L10.5495 14.2145L10.5495 14.2146L10.5494 14.2148C10.464 14.5864 10.3785 14.9582 10.2957 15.3316C10.2564 15.5169 10.2131 15.7015 10.1699 15.886C10.0829 16.2571 9.99592 16.628 9.94149 17.0043C9.91779 17.3122 9.83515 17.6132 9.6978 17.8917C9.61058 18.089 9.40973 18.2161 9.18849 18.214H7.60177C7.32976 18.2307 7.09383 18.0335 7.07052 17.77C7.03358 17.5315 7.0461 17.2883 7.10735 17.0545C7.28118 16.2955 7.4391 15.5329 7.59688 14.771L7.59689 14.771L7.59689 14.771L7.59689 14.771L7.5969 14.7709L7.5969 14.7709L7.5969 14.7709L7.5969 14.7709L7.59691 14.7709L7.59691 14.7709L7.59692 14.7709L7.59692 14.7708L7.59693 14.7708L7.59693 14.7708L7.59694 14.7708L7.59694 14.7707L7.59695 14.7707L7.59696 14.7707L7.59696 14.7706C7.72365 14.1589 7.85025 13.5476 7.98494 12.9388C7.98494 12.8384 7.98494 12.8027 7.87445 12.8027H3.57897C3.48337 12.8027 3.43871 12.8027 3.41677 12.9243C3.27174 13.6104 3.12471 14.2945 2.97769 14.9785C2.83322 15.6508 2.68877 16.3229 2.54624 16.9967C2.5057 17.1818 2.46476 17.3669 2.4238 17.5521C2.26839 18.2548 2.11272 18.9587 1.97815 19.6663C1.9171 20.1479 2.06789 20.6322 2.39354 21.0005C2.7192 21.3687 3.18961 21.5868 3.68945 21.6014H7.69423ZM26.3376 21.6014H22.524L18.7386 21.5946C18.1608 21.6055 17.592 21.4539 17.101 21.1581C16.5439 20.8642 16.2046 20.2913 16.2234 19.6762C16.2493 19.3502 16.3036 19.027 16.3856 18.7098C16.6755 17.2449 16.968 15.7967 17.2632 14.3652L17.2862 14.2505C17.3748 13.81 17.4622 13.375 17.5437 12.9335C17.5656 12.8119 17.6025 12.8119 17.7059 12.8119H21.7867C21.8972 12.8119 21.8972 12.8407 21.8972 12.948C21.6096 14.3508 21.3291 15.7247 21.0415 17.1565C21.0231 17.2752 21.0231 17.3959 21.0415 17.5146C21.0568 17.7688 21.2284 17.9891 21.4764 18.0727C21.6539 18.1335 21.8414 18.1627 22.0296 18.1586H23.82C24.5071 18.2127 25.1214 17.7447 25.2304 17.0842C25.4014 16.3333 25.567 15.5818 25.7317 14.8345L25.7319 14.8339L25.8354 14.3645C25.872 14.2018 25.9094 14.039 25.9467 13.8764L25.9469 13.8756L25.947 13.8753C26.0228 13.5452 26.0983 13.216 26.1676 12.8902C26.1825 12.783 26.2146 12.783 26.2929 12.783H30.3941C30.4986 12.783 30.4933 12.8232 30.4864 12.8753C30.4846 12.8892 30.4827 12.904 30.4827 12.9191L29.5753 17.1063C29.5287 17.3283 29.4846 17.5508 29.4405 17.7735L29.4405 17.7736L29.4404 17.7737L29.4404 17.7737L29.4404 17.7738L29.4404 17.7738L29.4404 17.7739L29.4404 17.7739L29.4404 17.774C29.3308 18.3266 29.2212 18.8796 29.0738 19.4253C28.8855 20.4641 28.0753 21.2928 27.0162 21.5299C26.793 21.5753 26.5657 21.5993 26.3376 21.6014ZM59.5508 21.6013H67.1921C68.9094 21.6439 70.5387 20.8655 71.551 19.5187C72.1375 18.821 72.4831 17.9622 72.5391 17.0635C72.5598 16.014 72.2113 14.989 71.551 14.1575C70.935 13.2537 69.8765 12.7287 68.7608 12.7737H60.9863C60.8538 12.7737 60.8241 12.8094 60.8296 12.9311C60.8334 13.1827 60.8557 13.4337 60.8962 13.6823C60.9835 14.3273 61.2601 14.9343 61.693 15.4311C62.2496 16.0482 63.061 16.392 63.9058 16.3686H67.4389C67.6844 16.3795 67.915 16.4858 68.0788 16.6636C68.2426 16.8414 68.3257 17.0757 68.3094 17.3137C68.2195 17.7984 67.7843 18.1509 67.2767 18.1501H60.4331C60.3148 18.1501 60.263 18.1501 60.2411 18.293C60.1116 18.9304 59.9745 19.5671 59.8373 20.2045L59.8373 20.2048L59.8372 20.2052L59.8371 20.2056L59.837 20.2059L59.8369 20.2063L59.8369 20.2067L59.8368 20.2071L59.8282 20.2471C59.7769 20.5317 59.7169 20.813 59.6565 21.0964L59.6563 21.0973L59.6561 21.0985L59.6561 21.0985L59.656 21.0986L59.656 21.0987C59.6206 21.2651 59.5849 21.4322 59.5508 21.6013ZM11.8023 1.80352H14.8041L17.762 1.802C17.8945 1.802 17.8945 1.83242 17.8945 1.95407L16.7442 7.36391C16.5573 8.35538 16.3499 9.35145 16.1431 10.3446L16.1431 10.3446L16.1431 10.3446L16.1431 10.3447L16.1431 10.3447L16.1431 10.3447L16.1431 10.3448C16.0976 10.5633 16.0521 10.7817 16.0069 10.9999C15.9849 11.1147 15.9551 11.1147 15.8666 11.1147H11.3596C11.2561 11.1147 11.2561 11.0789 11.2561 10.993C11.5123 9.81412 11.7626 8.62949 12.012 7.44856L12.0121 7.44835L12.1267 6.90619L12.159 6.74574C12.2139 6.47207 12.2679 6.20278 12.3335 5.93295C12.3625 5.81129 12.3108 5.81129 12.2152 5.81129H10.8878C10.7695 5.81129 10.7695 5.79 10.7695 5.68279C11.06 4.42316 11.3575 3.16834 11.662 1.91833C11.6769 1.83926 11.7067 1.80352 11.8023 1.80352ZM24.3915 11.1088H30.6906C30.801 11.1088 30.8473 11.1088 30.8676 10.9727C30.9342 10.5925 31.0001 10.2214 31.1027 9.85572C31.2467 9.36902 31.163 8.84553 30.8739 8.42399C30.5458 7.86908 29.9323 7.53163 29.2731 7.54352H21.1609C20.9564 7.54473 20.7521 7.55666 20.5489 7.57925C19.4763 7.70597 18.5958 8.46234 18.3361 9.48011C18.2752 9.73455 18.2203 9.98898 18.1653 10.2442L18.1653 10.2443L18.1652 10.2444L18.1652 10.2445L18.1652 10.2446L18.1652 10.2447L18.1651 10.2448C18.1133 10.4852 18.0613 10.7263 18.0039 10.9689C18.0039 11.0974 18.0039 11.1263 18.1442 11.1263L24.3915 11.1088ZM43.5199 21.6013H40.8652L38.2387 21.6157C38.1133 21.6157 38.1133 21.5876 38.1133 21.4728C38.6837 18.7959 39.2492 16.1227 39.8097 13.4534C39.8544 13.2611 39.9131 12.9881 39.928 12.8809C39.9429 12.7737 39.9797 12.7737 40.0683 12.7737H44.1169C44.2494 12.7737 44.2494 12.8041 44.2494 12.9258C44.0154 14.0788 43.7683 15.2287 43.5214 16.3773L43.5213 16.3781L43.5209 16.3799L43.5179 16.3937L43.5169 16.3983C43.399 16.9469 43.2812 17.4953 43.1649 18.0436C43.143 18.1584 43.1579 18.1584 43.2534 18.1584H44.2204C44.3308 18.1584 44.3308 18.1729 44.3308 18.2801C44.2444 18.7079 44.1569 19.1395 44.0691 19.5722C43.9396 20.2109 43.8096 20.8519 43.6821 21.4865C43.6601 21.6013 43.6084 21.6013 43.5199 21.6013ZM38.7994 11.1154H44.5453C44.6636 11.1154 44.7075 11.1154 44.7294 10.9725C44.8619 10.257 44.9951 9.60388 45.1424 8.92565C45.2285 8.57909 45.0987 8.21559 44.8101 7.99499C44.4289 7.68446 43.9426 7.52193 43.4452 7.53879H33.798C33.6945 7.53879 33.6577 7.53879 33.6358 7.66729C33.4049 8.76472 33.1591 9.85986 32.8984 10.9527C32.8984 11.0888 32.8984 11.1246 33.0309 11.1246L38.7994 11.1154ZM58.951 11.1154H53.1527L47.3512 11.1519C47.2188 11.1519 47.2188 11.123 47.2188 10.9869C47.447 9.98425 47.6687 8.98096 47.8904 7.97762L47.891 7.97461L47.9561 7.68017C47.9835 7.56536 48.0619 7.56536 48.1402 7.56536H57.3863C58.1464 7.58094 58.8477 7.96562 59.2535 8.58954C59.4227 8.83523 59.4839 9.13628 59.4235 9.42592L59.4178 9.45473L59.4178 9.45494C59.3163 9.96836 59.2149 10.4811 59.1211 10.9937C59.1077 11.1154 59.0396 11.1154 58.951 11.1154ZM30.7109 21.6014H34.9892C35.1514 21.6014 35.2101 21.5588 35.2399 21.4083C35.3734 20.7794 35.5135 20.1516 35.6535 19.5243L35.6536 19.524C35.8768 18.5239 36.0996 17.5254 36.2946 16.5269C36.5524 15.3316 36.8039 14.1364 37.0319 12.948C37.0319 12.8119 37.0319 12.783 36.8917 12.783H32.673C32.5476 12.783 32.5108 12.8187 32.4888 12.9259C32.4077 13.3232 32.3247 13.7205 32.2416 14.1177C32.1586 14.515 32.0755 14.9123 31.9944 15.3096L31.0424 19.8906C31.001 20.2866 30.9119 20.6856 30.8218 21.0892L30.8218 21.0893C30.7839 21.2591 30.7458 21.4298 30.7109 21.6014ZM65.5589 7.52734H72.9354C72.87 7.81643 72.8147 8.09418 72.7594 8.37144C72.702 8.65933 72.6448 8.9467 72.5765 9.24572L72.5695 9.27656C72.4379 9.853 72.3079 10.4224 72.1847 10.9991C72.1604 11.1139 72.1236 11.1139 72.028 11.1139H61.037C60.9414 11.1139 60.9414 11.0994 60.9414 10.9991C61.3069 9.22203 62.7826 7.85884 64.6296 7.59197C64.9374 7.5491 65.248 7.5275 65.5589 7.52734Z" fill="black"/>
<path d="M77.9195 22.6276C77.8021 22.9632 77.6847 23.2721 77.5674 23.6077C77.5474 23.7024 77.5149 23.7944 77.4705 23.8816C77.467 23.9158 77.449 23.9473 77.4205 23.9691C77.392 23.9908 77.3553 24.001 77.3187 23.9974C77.2153 23.9974 77.2013 23.946 77.1808 23.8816L76.7663 22.7173C76.7746 22.6786 76.7512 22.6401 76.7113 22.6269V23.8844C76.7113 23.9617 76.7113 24.0001 76.6005 24.0001C76.4898 24.0001 76.4766 24.0001 76.4766 23.8844V22.4461C76.4766 22.3557 76.4766 22.3303 76.6005 22.3365C76.8492 22.3365 76.8492 22.3365 76.9248 22.5557L77.2974 23.6193C77.2973 23.6546 77.3186 23.687 77.3524 23.7029L77.7926 22.4454C77.8752 22.3416 78.0204 22.2997 78.1513 22.342V23.9172C78.1513 24.0076 78.0963 23.9946 78.0339 23.9946C77.9716 23.9946 77.9232 23.9946 77.9232 23.9042V22.7693C77.9369 22.7226 77.9345 22.673 77.9165 22.6276H77.9195Z" fill="black"/>
<path d="M75.8271 23.2605V22.6113C75.8271 22.5423 75.8271 22.5071 75.7504 22.514C75.6736 22.5209 75.5369 22.514 75.4328 22.514C75.3286 22.514 75.3746 22.4623 75.367 22.4099C75.3595 22.3574 75.367 22.3257 75.4328 22.3257H76.4088C76.4798 22.3257 76.4798 22.3643 76.4798 22.423C76.4798 22.4816 76.4798 22.5202 76.403 22.514C76.3262 22.5078 76.2169 22.514 76.1238 22.514C76.0307 22.514 76.0144 22.5465 76.0144 22.6437V23.8704C76.0144 23.9546 76.0144 24.0001 75.9214 24.0001C75.8283 24.0001 75.8172 24.0001 75.8231 23.8766C75.833 23.6821 75.8271 23.4744 75.8271 23.2605Z" fill="black"/>
<path d="M51.6447 18.4184H50.3382C50.0579 18.4219 49.7807 18.3666 49.5299 18.2572C49.2357 18.1492 49.0736 17.8718 49.1461 17.6006C49.1679 17.4518 49.2187 17.3073 49.2964 17.1735C49.4414 16.893 49.7725 16.7221 50.124 16.7464H53.4964C53.5868 16.7464 53.6092 16.7464 53.5868 16.8518C53.466 17.3403 53.3533 17.8287 53.2406 18.3235C53.2406 18.4156 53.1654 18.4024 53.0975 18.4024L51.6447 18.4184Z" fill="black"/>
</svg>
