<svg width="86" height="15" viewBox="0 0 86 15" fill="none" xmlns="http://www.w3.org/2000/svg">
<path d="M15.3762 11.4154L15.388 0.536468L19.3968 0.517334L19.4149 15.0001H12.441L4.07411 4.07375L4.05602 14.9626L0.0353928 15.0001L0 0.536468L0.0534825 0.517334H7.02666L15.3762 11.4154Z" fill="black"/>
<path d="M64.1862 0.517334L64.2192 15.0001H60.2367V0.561463L60.2697 0.523995H64.2031L64.1862 0.517334Z" fill="black"/>
<path d="M45.1146 7.50635L45.1327 7.52551L45.651 7.06746L52.5302 0.517334H58.2418L50.3735 7.54383L50.3917 7.61878L59.2395 14.9593L53.0097 14.9967L45.1478 7.58464L45.1122 7.64127V15.0001H40.8202V0.517334H45.1146V7.50635Z" fill="black"/>
<path fill-rule="evenodd" clip-rule="evenodd" d="M38.5181 2.12378C37.5506 0.247186 35.6093 0.113504 33.7948 0.0378346L26.94 0C26.6465 0.0136717 26.3513 0.0224031 26.0565 0.0311233C24.7197 0.0706671 23.3906 0.109981 22.2608 0.608717C21.2913 1.05627 20.606 1.99036 20.4422 3.0873L20.4101 11.5185L20.5561 12.4434C20.9461 13.6103 21.9091 14.4638 23.0718 14.6731C24.8868 15.0198 26.8443 15.0077 28.8074 14.9955C29.4671 14.9914 30.1275 14.9873 30.7833 14.9968C31.2569 14.9818 31.7346 14.9806 32.2117 14.9793C33.9586 14.9746 35.6966 14.97 37.188 14.2931C38.1066 13.7894 38.7223 12.8358 38.8269 11.7548V3.80532C38.8473 3.22749 38.7416 2.6524 38.5181 2.12378ZM24.3668 4.28702C24.4214 3.88092 24.881 3.72875 25.2436 3.65308L25.2316 3.61945H34.2362C34.2704 3.63136 34.3062 3.64235 34.3425 3.65354C34.5371 3.7134 34.7492 3.77866 34.8411 4.01881L34.8956 4.50057V10.6735C34.6071 11.2376 34.0405 11.2457 33.4803 11.2537C33.335 11.2557 33.1901 11.2578 33.0506 11.2696H25.1891C25.1199 11.2454 25.0432 11.2299 24.9653 11.214C24.7369 11.1676 24.4974 11.119 24.4029 10.845C24.337 9.27475 24.3479 7.67336 24.3587 6.07772C24.3627 5.47936 24.3668 4.88181 24.3668 4.28702Z" fill="black"/>
<path fill-rule="evenodd" clip-rule="evenodd" d="M85.5955 14.9992V14.9368L85.6253 14.9559L78.2042 0.517334H72.6718L65.2147 15.0001L69.9374 14.9551L71.213 12.5005H79.5417L79.6301 12.538C79.9078 13.1285 80.2062 13.7038 80.5085 14.2868C80.6307 14.5225 80.7536 14.7595 80.876 14.9992H85.5955ZM72.7782 9.31824L75.3936 4.15594C76.0179 5.40456 76.6685 6.67884 77.3172 7.94965C77.5506 8.40675 77.7837 8.8634 78.0153 9.31824H72.7782Z" fill="black"/>
</svg>
